PathFileType	3	(X/Y/Z)	results
DataRate	CameraRate	NumFrames	NumMarkers	Units	OrigDataRate	OrigDataStartFrame	OrigNumFrames
30.0	30.0	4	85	mm	30.0	120	478
Frame#	Time	head			nose			neck			shoulder_r			elbow_r			wrist_r			shoulder_l			elbow_l			wrist_l			hip_r			knee_r			ankle_r			hip_l			knee_l			ankle_l			heel_r			heel_l			mtoe_r			ltoe_r			mtoe_l			ltoe_l			asis_l			asis_r			psi_r			psi_l			mhnd_r			lhnd_r			mhnd_l			lhnd_l			l_lat_knee			r_med_wrist			l_lat_ankle			r_med_ankle			r_lat_knee			xiphoid			l_med_ankle			r_med_knee			l_med_elbow			navel			r_lat_elbow			r_lat_wrist			l_med_wrist			l_lat_elbow			l_med_knee			r_med_elbow			r_lat_ankle			l_lat_wrist			chin			T10			r_eye			l_eye			l_ear			r_ear			spinal_cord_8			spinal_cord_12			spinal_cord_27			spinal_cord_33			up_arm_r_0			up_arm_r_5			up_arm_l_0			up_arm_l_5			front_torso_11			front_torso_7			front_torso_4			front_torso_1			front_torso_10			thigh_r_2			thigh_r_3			thigh_l_1			thigh_l_5			shank_l_0			shank_l_4			shank_r_1			shank_r_2			foot_r_1			foot_r_3			foot_r_5			foot_r_6			foot_r_7			foot_l_1			foot_l_7			foot_l_0			foot_l_4			foot_l_5			foot_l_6			
		X1	Y1	Z1	X2	Y2	Z2	X3	Y3	Z3	X4	Y4	Z4	X5	Y5	Z5	X6	Y6	Z6	X7	Y7	Z7	X8	Y8	Z8	X9	Y9	Z9	X10	Y10	Z10	X11	Y11	Z11	X12	Y12	Z12	X13	Y13	Z13	X14	Y14	Z14	X15	Y15	Z15	X16	Y16	Z16	X17	Y17	Z17	X18	Y18	Z18	X19	Y19	Z19	X20	Y20	Z20	X21	Y21	Z21	X22	Y22	Z22	X23	Y23	Z23	X24	Y24	Z24	X25	Y25	Z25	X26	Y26	Z26	X27	Y27	Z27	X28	Y28	Z28	X29	Y29	Z29	X30	Y30	Z30	X31	Y31	Z31	X32	Y32	Z32	X33	Y33	Z33	X34	Y34	Z34	X35	Y35	Z35	X36	Y36	Z36	X37	Y37	Z37	X38	Y38	Z38	X39	Y39	Z39	X40	Y40	Z40	X41	Y41	Z41	X42	Y42	Z42	X43	Y43	Z43	X44	Y44	Z44	X45	Y45	Z45	X46	Y46	Z46	X47	Y47	Z47	X48	Y48	Z48	X49	Y49	Z49	X50	Y50	Z50	X51	Y51	Z51	X52	Y52	Z52	X53	Y53	Z53	X54	Y54	Z54	X55	Y55	Z55	X56	Y56	Z56	X57	Y57	Z57	X58	Y58	Z58	X59	Y59	Z59	X60	Y60	Z60	X61	Y61	Z61	X62	Y62	Z62	X63	Y63	Z63	X64	Y64	Z64	X65	Y65	Z65	X66	Y66	Z66	X67	Y67	Z67	X68	Y68	Z68	X69	Y69	Z69	X70	Y70	Z70	X71	Y71	Z71	X72	Y72	Z72	X73	Y73	Z73	X74	Y74	Z74	X75	Y75	Z75	X76	Y76	Z76	X77	Y77	Z77	X78	Y78	Z78	X79	Y79	Z79	X80	Y80	Z80	X81	Y81	Z81	X82	Y82	Z82	X83	Y83	Z83	X84	Y84	Z84	X85	Y85	Z85	
120	4.0	-171.365314391879	2022.2396482613733	1832.2747006005989	-92.83735745185469	1833.4952396166775	1657.5014085201599	-51.92391271423032	1619.6557309246161	1776.9978978045106	107.25132047828457	1648.3084903500232	1683.3341992370238	43.79689085207299	1597.7918339883713	1382.4129176031447	-52.712903280177194	1853.7901769812659	1475.3024347734597	-226.37575065246125	1601.2974764583532	1798.1118821180992	-345.19771859126644	1572.2128350356506	1509.5626472118945	-230.73600875623936	1849.0597171488773	1491.9924626610925	102.78093227812441	1077.8058118305137	1731.171604499312	131.44351939441532	609.3402366186571	1583.6928762403227	276.16842862624145	160.1570014904205	1737.614301011132	-78.02675785330074	1066.813654091979	1811.271229157249	-189.15265386098906	589.2055133823067	1746.8799101709023	-133.68610025982917	163.34072316875952	1965.704296073325	289.8813806306508	99.30905359518347	1765.6032979409713	-125.66410691523363	99.08251583307947	2011.3605361286893	210.19068510838943	57.42645649475281	1529.8400370035317	301.2058171933605	60.59238506140356	1571.0875174170417	-187.72905131186	67.12930040752242	1772.448847621504	-252.47377794987182	58.67078067854523	1858.0492272212055	-142.74198130516803	1119.1153689987677	1781.1784904245735	123.69358472887842	1132.8398369896058	1667.3967275314888	86.13340687474216	1172.0953580932166	1829.1589338832725	-6.3066713975504225	1165.1826523464852	1863.8286426530346	-92.17516084562502	1915.5083436961306	1471.3927161573415	-66.77823384361844	1928.9589992439487	1516.593581402767	-210.07353654641508	1914.3400297634328	1458.434157759409	-193.88702808991616	1927.788285967674	1507.5553209455572	-243.025039202297	596.0826152649603	1775.3900784783593	-60.751218465678036	1850.974315787132	1439.963814645508	-192.15739435258445	151.78811283686233	1999.0930899223208	235.07955183313226	133.50655710447336	1737.4720725024185	184.3609307453411	607.2199236944077	1571.526829933652	-57.476722036861574	1436.768552595456	1669.1680263445412	-101.5813853081353	141.36858201181678	1946.0954078117259	81.02901452420092	598.9479378961852	1594.785303056795	-312.75796660482047	1543.8530515402585	1510.3642894167147	-32.06600777651289	1199.5108649704928	1643.369936517107	83.96692415422123	1622.9984173281707	1377.7636597922547	-42.85776387972537	1834.8394721376267	1509.2232763447028	-257.71016715926964	1844.3456323007276	1460.4767672426285	-379.18978524810086	1593.1458337503727	1535.664243568497	-145.75940140171133	589.3188990734011	1704.1785330419957	10.204409839398146	1576.0877457367592	1400.5764569734217	338.9065859079008	150.33654919403295	1725.110094273205	-225.66375688423435	1838.9283013030013	1530.5479497376878	-61.52257754958239	1740.9611294610936	1672.6684759021464	8.976102927065098	1448.806147821817	1872.340608779038	-66.95427961049353	1884.4433958279228	1665.4712895100106	-148.98874707426717	1855.4791865168668	1658.080232303396	-215.20969342351813	1812.2455235556686	1779.620139382121	-10.571282573153345	1880.0098809597173	1800.7964480112457	-44.10064986393731	1683.593861981773	1830.7767563581401	-8.999321886511224	1556.6432110608873	1878.3992553475885	39.80407302511915	1286.9628806152193	1843.5169771692936	5.79207420609721	1438.3792716993903	1858.3910554530264	62.04222360975206	1676.3217951716313	1528.7380989958244	100.03673338590181	1581.4759573620356	1503.3696148034105	-281.0002786206508	1607.6909649877184	1751.3070121837134	-288.52620155178926	1536.7071423336358	1584.6681321903209	30.29384703497236	1237.8212880095805	1667.9737035570906	-53.65154007789706	1342.96007319305	1632.5124020032504	-137.18571271462017	1474.6679812661735	1689.3252721331244	-105.1623626529381	1254.0666395277874	1708.662123862218	11.919716969054445	1543.9068477663554	1630.0708663852188	96.82084835873485	821.769035663178	1657.4186930758362	216.1341013237381	794.0626873709102	1618.2026402324957	-102.10366854063113	720.4262705830373	1742.2438396815958	-228.37389498153408	960.4292581149246	1828.8201925056812	-229.988707373772	264.1404170772211	1929.6188090023818	-112.62013519959491	419.4293630116839	1807.3424975688713	264.1764193037404	433.4540628207868	1631.8557243052453	157.5826204477691	361.5509121601004	1671.4823194114501	241.4226860995074	51.78835645681679	1541.9807621102827	272.84531866073894	55.983341178400494	1551.095929333832	225.0476348257514	81.65376767815472	1619.7216795163945	268.71353677738875	90.66905846919276	1620.1810815382246	306.4072990234961	77.14825530409064	1624.1507423469616	-230.41452952886482	55.957129563437974	1816.9226064555955	-217.6588127884018	102.97322053636638	1928.6788892902166	-243.51101438970252	56.70774079172798	1829.9679528428253	-214.11726827329565	55.09003390646843	1801.5739373403085	-203.5803907030161	80.1592943031079	1862.742008197952	-162.6936563165194	97.95346960528715	1882.3194181616482	
121	4.033333333333333	-170.67313521548994	2040.0712171716941	1829.3967339659823	-89.61026712689282	1846.5201794196034	1661.1599881499028	-52.064659135941426	1629.4027600931843	1776.4406360899268	114.84494298345922	1668.0861378764914	1680.1429078482672	35.47682368360271	1629.1714955590312	1381.2811217306148	-58.42861923175767	1882.2889708629614	1484.1940260008073	-221.52789382616135	1611.5446975690509	1801.8666148501761	-346.58523650514996	1603.3923605882142	1514.6046475793337	-226.21464568338615	1878.275144610272	1516.7878683249698	95.8622148655513	1086.4312003427895	1723.9525857449976	130.42266822384894	613.0329868515832	1596.300477705797	273.93881676838186	159.4296287231433	1737.8977646764538	-84.75973744762038	1076.501080321024	1804.6080336185562	-186.72426684371572	595.9309902155466	1754.3173383004164	-133.60149468011684	165.45136539172023	1964.523745592828	287.3437877574642	98.12564399843636	1764.643607648108	-125.62927219709044	100.83848419985418	2009.1810196184988	211.54237260892862	58.46435077502769	1527.2195116050145	301.97831538176627	64.29151544460508	1569.4393697205792	-190.5970047455911	68.8916536216876	1771.0414514072097	-254.40285396490225	60.90513178932481	1857.3888905439499	-148.96366848600334	1129.9610544939076	1775.4706203204894	117.18491958126619	1142.0639615955404	1660.836375236132	80.70271964320054	1179.5896418008886	1823.2544983448304	-11.68140399702838	1173.3042680311044	1858.1917285399902	-98.3769122223952	1943.8131952569934	1483.4249523308656	-71.14099072769218	1956.383270661005	1527.801072479187	-204.52699076145285	1945.5019236474657	1488.0681433084997	-187.42798377848055	1954.7636424234183	1537.8435574124414	-240.6261806084171	601.7933202852512	1783.2118845363207	-67.96009190604772	1880.239148910749	1449.1753036303771	-191.9429519434006	153.77883845985968	1998.0974417324298	232.55956775544135	133.235254973803	1738.315791040919	183.30882101650548	610.7163215891147	1583.8052578577506	-58.669819729508504	1447.972019159477	1666.2358586733903	-101.83292726328538	143.5760394678039	1944.2697472712453	79.93484552888688	602.2778161264289	1606.8156913269434	-314.6167567960962	1574.5440710743048	1512.858235175099	-35.7854135573365	1210.7745833200295	1637.6677547732684	75.30531132117021	1654.6818823571714	1375.490547038281	-47.0176009557178	1862.6237309714002	1517.2083180799307	-253.6816249462992	1876.5868324348012	1485.3907103742001	-379.6906033673338	1623.0804842683146	1542.7357128637045	-144.56819362634485	595.2549292642575	1710.3589577816697	2.9334894020598687	1606.6547107440372	1400.3431831435705	336.21935443153416	149.16938384604978	1723.5892059789674	-220.8845266538264	1865.0864585144773	1554.3717385355528	-62.739725976180324	1753.0613623399904	1678.9543817594238	5.8555630525753095	1456.6510167012648	1870.1994090350115	-62.30344038914001	1896.5538226319195	1670.1120327921496	-144.82918081389832	1870.5927808017805	1658.333515306905	-219.41170431303252	1831.269272734553	1776.3056360088985	-13.873119753548588	1891.57713092405	1808.464240997015	-44.03730506676004	1692.558641724999	1831.1064377761218	-10.9133658716052	1564.6085781125944	1877.453598193916	35.0724703320085	1294.8306313172577	1839.622557940706	2.691015228104457	1446.439822919104	1856.0868266641833	61.40175254667288	1701.973824631537	1529.3980506264934	98.1212893726122	1608.328497977063	1498.3319255990593	-276.9651565477176	1621.8537510400663	1756.7462766492015	-289.02292719636426	1562.1398031117528	1586.004619430457	26.767070986811266	1248.0282854829609	1663.380275276146	-55.57442475677748	1354.595608569514	1628.4263083460187	-138.12880877548355	1486.5567588788665	1686.0775160334435	-108.89484681342203	1265.3641576330128	1702.9170345193083	12.372406193889717	1554.7649865084597	1629.2043556474343	93.02086545089747	827.5904747696023	1660.523485072061	212.84598988695748	799.6123030413045	1623.1021765698242	-102.93848532187172	728.11099048318	1744.4201942426228	-232.52773162658374	967.5610432431937	1827.5548347566219	-229.23550318436705	267.78158736315623	1931.0633974951945	-111.31450025779826	424.34623122925274	1810.9647540336596	262.34118401234275	434.82132656317634	1637.6736346403204	155.99013181976852	363.33400489861964	1678.6807633858477	242.86122795408096	53.791920076551676	1539.5451335082705	274.00759143662333	59.018274892563355	1549.0664393302816	224.60131676995783	81.2228221024329	1617.7618618237407	267.8685221466371	91.94385039594535	1618.860043382775	306.0317745790223	79.83684254042021	1622.9068398936247	-232.83078321469964	58.01411613056243	1816.0166647048488	-218.5416908295596	105.11540515540942	1927.5513153025722	-245.77284454335273	58.85422449450125	1829.209831943659	-216.7151950615397	57.03688014470003	1800.4838912491252	-205.34294220384746	82.13341021048451	1861.4909608542878	-164.1387674014162	99.73174131435225	1880.5736080913086	
122	4.066666666666666	-153.59287322228036	2067.826424494128	1814.5970941330636	-90.21086654650847	1854.310833329337	1663.8303570862372	-52.63236720306314	1638.3938449114019	1777.7659713959977	119.72105977983347	1684.2667488139175	1676.6369902312715	30.794183942161023	1653.6329790078842	1379.5080656033456	-60.76015993501953	1902.5989093001376	1494.013620270458	-217.9433812390986	1623.0357334460125	1807.224268534245	-346.33065039112245	1627.9869117099836	1521.361657565308	-218.20793438302317	1899.0110834986356	1534.957925005503	90.19010987574546	1094.0670914358504	1718.8550439013711	128.02578542031932	617.1086376224355	1608.0804427941844	271.22703476912045	160.19412602926775	1738.9437850884426	-90.41374498685751	1084.934866748354	1799.645193633734	-185.28555078995396	602.3545974286416	1762.9435529631037	-133.54007796618862	167.5665570153559	1964.4459994331432	284.4637232351237	98.95267792569275	1764.785971757737	-125.35850139792493	102.66866058417082	2008.122136277389	212.7792747927255	55.35937814424721	1526.773286872607	302.4773073423629	64.37261410470937	1569.9954634355936	-193.58158481366868	70.37357293257843	1770.9418284793614	-255.99006037130852	61.60908848260832	1858.2299557473186	-154.56175350597658	1138.267488341709	1770.153382396372	111.55859128475521	1149.2245934943505	1655.338464499313	75.18446921703192	1187.9455549356678	1817.500065040902	-17.19428350117684	1182.023574795967	1852.5148972604286	-101.03655155193249	1963.855065272843	1496.6938083667494	-72.31765146843367	1975.128167674794	1540.479470346164	-194.7723068889278	1966.8137330672314	1509.108575377585	-177.16072400274274	1973.36724635864	1559.1348778143013	-238.8478819154916	607.4199841524202	1792.8301638486892	-71.511283264086	1901.6455418626858	1459.3024391392119	-191.20531414741643	156.17900316436007	1999.2628164402556	229.72306398234798	134.19975664132377	1739.4685517892885	180.75643534323638	614.4933554100729	1594.7599162191234	-60.034757920383484	1459.1050422993508	1664.1589085114467	-102.61776832937078	145.5774600568828	1943.0383701930418	77.56610053837775	606.0463433908826	1618.5773472688302	-315.06864269870624	1598.490102284898	1518.218002391523	-39.5010744762245	1222.2254333484634	1631.4652564884677	70.24859836158984	1679.5927792471846	1373.179007876507	-48.086261688772225	1881.9279172449021	1525.934755436216	-245.87358329179892	1899.4937789516098	1503.693796187115	-378.65177949446087	1647.419742531458	1550.561898367492	-144.80081993288132	600.8523825237044	1717.4017004002305	-0.9606992075260196	1630.3258453151097	1398.946206076476	333.2397396869331	149.90281231401758	1723.5364446515189	-213.0596405219449	1884.01838452442	1571.8850553786738	-71.32039190182302	1760.775168173292	1689.6653377732432	2.276808300813818	1463.2968646976763	1868.9506984779018	-58.68883004240086	1902.4119264054577	1668.5008391144509	-143.18846952671356	1882.6812116124368	1658.8200942831543	-220.24258435461763	1860.1639760663684	1779.5758388777242	-10.14439613284103	1905.2293948460535	1806.8738738443806	-44.51234005204912	1700.4390660110848	1833.6758038925848	-13.356495816393362	1571.2881640438159	1878.013499998944	30.013485585769786	1301.7409301405191	1835.7126876739949	-0.8429265216703622	1453.3834937559066	1854.6175148199745	61.12663494267388	1722.2088110573438	1528.8004075218416	97.39210319598295	1629.7932434769523	1493.77107132606	-273.6199098044766	1636.217229593531	1763.1585911070338	-288.96430767073736	1582.9062434264583	1590.571375103009	23.172501415139948	1258.2811158088516	1658.5539258062138	-57.56403496537237	1366.4093259291835	1624.6659051391823	-139.27331570637753	1498.2273390078456	1683.828715487199	-112.72347730341646	1276.442197208345	1696.8984407518826	12.618926831624924	1565.7385356644581	1629.8980249790156	89.11066798409662	833.1753619157845	1664.4107093278005	208.97267666743605	804.8594155275122	1627.3634567450981	-104.4531113158063	735.0716425847916	1747.4214619478578	-235.6243782912343	974.1475977462844	1829.1396078009634	-228.40405167027166	271.8625703917767	1935.118522675235	-111.11783704004368	428.72002964214255	1814.7805979106026	259.6050648476245	437.4970832863694	1644.138889234538	153.4904734173258	365.7645589249081	1685.3299866161913	244.08523396609516	51.77939455450259	1539.491144467231	274.93276265769	58.069486125342955	1549.3364849416605	224.0315022297301	79.10119507006098	1617.3056828955707	266.91476471562225	91.22118392322035	1618.8318481159874	305.3981363845545	80.37930661544192	1623.400637765974	-235.01654792288818	58.99793005377417	1816.5326308198364	-219.53242634438897	106.09332952393753	1927.9101563832885	-247.7658736279282	59.68597119071813	1829.9208229587948	-219.12814384114853	58.2088305000001	1800.75701163862	-207.09593531276485	83.33902944630896	1861.623468386649	-165.7924439798103	101.33748159156815	1880.108868800127	
123	4.1	-129.64205040427984	2097.0386847588284	1788.7583691292482	-95.71771239343467	1859.9755299745832	1666.336984662679	-52.31895463933083	1646.9974952609805	1780.2660236908744	121.08588156612417	1697.227474640248	1677.165206051316	31.713613830014655	1673.9517015981835	1379.5028955410248	-53.96207001500929	1920.4652546173709	1503.4726489256107	-217.15162093273844	1634.8856655270383	1813.2066908255485	-346.4545784954715	1648.81339157391	1528.0540983260469	-209.83512978310284	1915.3883050805298	1546.1464243729836	84.21312379433678	1101.9508324156825	1712.8710559686058	126.0451698722811	622.0443110725469	1619.553253633322	269.6213050788248	162.3757912537564	1739.9419090899694	-95.81565938831724	1093.4390931009134	1795.0013532550704	-183.13278233736398	609.19203283638	1772.4872692508043	-133.19976567265007	170.58983643740032	1966.0235116922227	282.9229845367873	101.47953856448653	1765.0212140312833	-124.79357660504425	105.6039952223854	2008.8756500602708	211.8075674937376	50.740150937309274	1528.2572258435393	301.35302739104736	62.90356703057666	1571.0216261470405	-196.41712457275878	71.67322224050051	1772.9294057042503	-257.26981831060334	62.31136958317787	1861.2479006570063	-159.80664280559492	1147.4694311550454	1766.453515086567	105.48136889283393	1157.4774562755772	1649.6431057950422	70.65350402048992	1195.1157443594984	1812.39799327893	-21.48934196353896	1189.5633386415382	1848.0884542260135	-93.03550284217553	1982.3346185886078	1508.6819121516687	-63.68317789104688	1991.5424767104985	1552.5304996262603	-184.36606166115817	1982.8905104287007	1521.460484186649	-166.39230402176452	1987.9597407261267	1571.5303779774235	-236.28466847059738	613.546692796696	1803.4477936311712	-65.06590516988679	1920.9180261260235	1468.8625131176132	-190.07247700672121	159.619167217177	2002.249272076578	227.99971635319957	136.5851154053187	1740.9649449017497	178.58335511539934	619.1358234357298	1605.2757268275304	-62.17768793692909	1469.600252294561	1663.9094233910666	-103.24966957797524	148.4260119529837	1943.4458050737521	75.64766610795098	610.565508367659	1630.1285105588263	-316.13026504056273	1618.428132824794	1524.2554770880329	-44.50423096930862	1233.0379224511862	1627.4626239019774	71.5565868317192	1699.4340402818173	1373.6885224061032	-41.375210697877726	1898.4657350421792	1534.5285435442806	-237.57494910931044	1917.3179126078203	1515.004075171989	-378.04497300339455	1668.715316191185	1557.73413765416	-144.43767508291717	606.7712369949122	1725.3730899094699	-0.39091729257446917	1650.7398430853655	1398.475114590359	331.2254734544056	152.0216692972412	1723.0128971338227	-205.03865908565564	1899.5593269419442	1582.7706817681217	-83.90754289086574	1769.3436654676445	1704.0145900523496	0.8536672141093321	1469.8763473927443	1868.5235771951054	-59.68291330103007	1904.889289045162	1662.6743567291023	-146.07727693429047	1892.5477335294825	1660.046251029474	-217.13793800764614	1894.2298294217424	1786.4340089903017	-2.4925273180427254	1921.4125407164504	1796.7185242176874	-43.29453414068473	1708.0649979671687	1837.1059183066411	-13.494501875569345	1577.8866393927708	1879.3199733225833	26.60252591027453	1308.5487171903783	1832.6794615165118	-2.428251708917703	1460.2244972665537	1854.048819169914	63.076442762304396	1739.0307011736822	1530.1415441545182	97.93998317578566	1646.8034415064621	1493.2424677803392	-272.5687665525935	1650.5476919382033	1769.6285713050695	-290.2332482187056	1600.7779975838855	1596.2076886774305	18.672860921336756	1267.9397299429174	1654.890789209782	-60.91390974947363	1377.509510751201	1622.9704956162996	-140.89125183582115	1509.3243463926956	1684.4612031834047	-116.87580444410712	1287.0702143404403	1693.985899137432	11.595995993751004	1575.9082050356178	1631.0592985965586	85.2971468442647	839.2843511658346	1667.7601945738368	205.1696601158508	810.8029142895805	1630.8741377933627	-105.48753026946115	742.2838616894669	1751.1247541813984	-238.18359430634044	981.0173913884715	1831.3689151188987	-227.06544926876188	276.86237558518957	1940.8776636801665	-110.50121310834487	433.5941192562952	1819.677522691883	257.4157205639881	441.218853118096	1649.8445222076016	151.84491211075525	369.3685738015223	1692.2108984256931	243.21812986269148	48.20926166669672	1540.9692058321414	273.9251990624809	55.46628124976229	1550.585731989549	222.67465559899003	76.80914431708477	1618.1945106767473	265.25493429899143	89.99362872108468	1619.3288599816472	303.99928540058653	80.19213355667027	1624.0401217755	-236.94385522903895	59.86490759078811	1819.2212028638273	-220.29894572850105	107.49803248420886	1930.2019231424242	-249.48182696087633	60.41751006444045	1832.8137114861072	-221.30498927665587	59.247278611886436	1803.1906498762044	-208.6308772699353	84.72040931168668	1863.7836609864246	-167.283782062064	103.33881815999543	1881.5433139726656	
